<svg width="21" height="21" viewBox="0 0 21 21" fill="none" xmlns="http://www.w3.org/2000/svg">
<path d="M8.18953 9.79718C8.16453 9.79718 8.14787 9.79718 8.12287 9.79718C8.0812 9.78885 8.02287 9.78885 7.97287 9.79718C5.5562 9.72218 3.7312 7.82218 3.7312 5.48052C3.7312 3.09718 5.67287 1.15552 8.0562 1.15552C10.4395 1.15552 12.3812 3.09718 12.3812 5.48052C12.3729 7.82218 10.5395 9.72218 8.21453 9.79718C8.2062 9.79718 8.19787 9.79718 8.18953 9.79718ZM8.0562 2.40552C6.36453 2.40552 4.9812 3.78885 4.9812 5.48052C4.9812 7.14718 6.2812 8.48885 7.93953 8.54718C7.98953 8.53885 8.09787 8.53885 8.2062 8.54718C9.83954 8.47218 11.1229 7.13052 11.1312 5.48052C11.1312 3.78885 9.74787 2.40552 8.0562 2.40552Z" fill="#1E1E1E"/>
<path d="M14.3396 9.90536C14.3146 9.90536 14.2896 9.90536 14.2646 9.89702C13.923 9.93036 13.573 9.68869 13.5396 9.34702C13.5063 9.00536 13.7146 8.69702 14.0563 8.65536C14.1563 8.64702 14.2646 8.64702 14.3563 8.64702C15.573 8.58036 16.523 7.58036 16.523 6.35536C16.523 5.08869 15.498 4.06369 14.2313 4.06369C13.8896 4.07202 13.6063 3.78869 13.6063 3.44702C13.6063 3.10535 13.8896 2.82202 14.2313 2.82202C16.1813 2.82202 17.773 4.41369 17.773 6.36369C17.773 8.28036 16.273 9.83036 14.3646 9.90536C14.3563 9.90536 14.348 9.90536 14.3396 9.90536Z" fill="#1E1E1E"/>
<path d="M8.19798 18.9056C6.56465 18.9056 4.92298 18.4889 3.68132 17.6556C2.52298 16.8889 1.88965 15.8389 1.88965 14.6973C1.88965 13.5556 2.52298 12.4973 3.68132 11.7223C6.18131 10.0639 10.2313 10.0639 12.7146 11.7223C13.8646 12.4889 14.5063 13.5389 14.5063 14.6806C14.5063 15.8223 13.873 16.8806 12.7146 17.6556C11.4646 18.4889 9.83132 18.9056 8.19798 18.9056ZM4.37298 12.7723C3.57298 13.3056 3.13965 13.9889 3.13965 14.7056C3.13965 15.4139 3.58132 16.0973 4.37298 16.6223C6.44798 18.0139 9.94798 18.0139 12.023 16.6223C12.823 16.0889 13.2563 15.4056 13.2563 14.6889C13.2563 13.9806 12.8146 13.2973 12.023 12.7723C9.94798 11.3889 6.44798 11.3889 4.37298 12.7723Z" fill="#1E1E1E"/>
<path d="M15.8396 17.4055C15.548 17.4055 15.2896 17.2055 15.2313 16.9055C15.1646 16.5638 15.3813 16.2388 15.7146 16.1638C16.2396 16.0555 16.723 15.8471 17.098 15.5555C17.573 15.1971 17.8313 14.7471 17.8313 14.2721C17.8313 13.7971 17.573 13.3471 17.1063 12.9971C16.7396 12.7138 16.2813 12.5138 15.7396 12.3888C15.4063 12.3138 15.1896 11.9805 15.2646 11.6388C15.3396 11.3055 15.673 11.0888 16.0146 11.1638C16.7313 11.3221 17.3563 11.6055 17.8646 11.9971C18.6396 12.5805 19.0813 13.4055 19.0813 14.2721C19.0813 15.1388 18.6313 15.9638 17.8563 16.5555C17.3396 16.9555 16.6896 17.2471 15.973 17.3888C15.923 17.4055 15.8813 17.4055 15.8396 17.4055Z" fill="#1E1E1E"/>
</svg>
