<svg width="21" height="21" viewBox="0 0 21 21" fill="none" xmlns="http://www.w3.org/2000/svg">
<path d="M10.3359 11.4239C7.69419 11.4239 5.54419 9.27391 5.54419 6.63224C5.54419 3.99058 7.69419 1.84058 10.3359 1.84058C12.9775 1.84058 15.1275 3.99058 15.1275 6.63224C15.1275 9.27391 12.9775 11.4239 10.3359 11.4239ZM10.3359 3.09058C8.38586 3.09058 6.79419 4.68224 6.79419 6.63224C6.79419 8.58224 8.38586 10.1739 10.3359 10.1739C12.2859 10.1739 13.8775 8.58224 13.8775 6.63224C13.8775 4.68224 12.2859 3.09058 10.3359 3.09058Z" fill="#1E1E1E"/>
<path d="M3.17773 19.7572C2.83607 19.7572 2.55273 19.4738 2.55273 19.1322C2.55273 15.5738 6.0444 12.6738 10.3361 12.6738C11.1777 12.6738 12.0027 12.7822 12.8027 13.0072C13.1361 13.0988 13.3277 13.4405 13.2361 13.7738C13.1444 14.1072 12.8027 14.2989 12.4694 14.2072C11.7861 14.0155 11.0694 13.9238 10.3361 13.9238C6.73606 13.9238 3.80273 16.2572 3.80273 19.1322C3.80273 19.4738 3.5194 19.7572 3.17773 19.7572Z" fill="#1E1E1E"/>
<path d="M15.336 19.7572C13.9527 19.7572 12.6527 19.0239 11.9527 17.8322C11.5777 17.2322 11.3777 16.5239 11.3777 15.7989C11.3777 14.5822 11.9194 13.4572 12.861 12.7072C13.561 12.1489 14.4444 11.8406 15.336 11.8406C17.5194 11.8406 19.2944 13.6156 19.2944 15.7989C19.2944 16.5239 19.0944 17.2323 18.7194 17.8406C18.511 18.1906 18.2443 18.5072 17.9277 18.7739C17.236 19.4072 16.311 19.7572 15.336 19.7572ZM15.336 13.0906C14.7194 13.0906 14.136 13.2989 13.6444 13.6906C13.0027 14.1989 12.6277 14.9739 12.6277 15.7989C12.6277 16.2906 12.761 16.7739 13.0194 17.1906C13.5027 18.0072 14.3944 18.5072 15.336 18.5072C15.9944 18.5072 16.6277 18.2656 17.111 17.8322C17.3277 17.6489 17.511 17.4322 17.6443 17.1989C17.911 16.7739 18.0444 16.2906 18.0444 15.7989C18.0444 14.3072 16.8277 13.0906 15.336 13.0906Z" fill="#1E1E1E"/>
<path d="M14.8607 17.249C14.7024 17.249 14.5441 17.1906 14.4191 17.0656L13.5941 16.2407C13.3524 15.999 13.3524 15.5989 13.5941 15.3573C13.8358 15.1156 14.2358 15.1156 14.4774 15.3573L14.8774 15.7573L16.2107 14.5239C16.4607 14.2906 16.8607 14.3073 17.0941 14.5573C17.3274 14.8073 17.3108 15.2073 17.0608 15.4406L15.2858 17.0823C15.1608 17.1906 15.0107 17.249 14.8607 17.249Z" fill="#1E1E1E"/>
</svg>
