<svg width="21" height="21" viewBox="0 0 21 21" fill="none" xmlns="http://www.w3.org/2000/svg">
<path d="M10.2521 11.2933C7.61045 11.2933 5.46045 9.14329 5.46045 6.50163C5.46045 3.85996 7.61045 1.70996 10.2521 1.70996C12.8938 1.70996 15.0438 3.85996 15.0438 6.50163C15.0438 9.14329 12.8938 11.2933 10.2521 11.2933ZM10.2521 2.95996C8.30212 2.95996 6.71045 4.55163 6.71045 6.50163C6.71045 8.45163 8.30212 10.0433 10.2521 10.0433C12.2021 10.0433 13.7938 8.45163 13.7938 6.50163C13.7938 4.55163 12.2021 2.95996 10.2521 2.95996Z" fill="#292D32"/>
<path d="M3.09375 19.6263C2.75208 19.6263 2.46875 19.343 2.46875 19.0013C2.46875 15.443 5.96041 12.543 10.2521 12.543C11.0937 12.543 11.9187 12.6513 12.7187 12.8763C13.0521 12.968 13.2438 13.3096 13.1521 13.643C13.0604 13.9763 12.7187 14.168 12.3854 14.0763C11.7021 13.8847 10.9854 13.793 10.2521 13.793C6.65208 13.793 3.71875 16.1263 3.71875 19.0013C3.71875 19.343 3.43542 19.6263 3.09375 19.6263Z" fill="#292D32"/>
<path d="M15.2518 19.6266C14.2685 19.6266 13.3351 19.26 12.6101 18.6016C12.3184 18.3516 12.0601 18.0433 11.8601 17.7016C11.4935 17.1016 11.2935 16.3933 11.2935 15.6683C11.2935 14.6266 11.6935 13.6516 12.4101 12.91C13.1601 12.135 14.1685 11.71 15.2518 11.71C16.3851 11.71 17.4601 12.1933 18.1935 13.0266C18.8435 13.7516 19.2101 14.685 19.2101 15.6683C19.2101 15.985 19.1685 16.3016 19.0851 16.6016C19.0018 16.9766 18.8434 17.3683 18.6268 17.71C17.9351 18.8933 16.6351 19.6266 15.2518 19.6266ZM15.2518 12.96C14.5101 12.96 13.8268 13.2516 13.3101 13.7766C12.8185 14.2849 12.5435 14.9516 12.5435 15.6683C12.5435 16.16 12.6768 16.6433 12.9351 17.0599C13.0685 17.2933 13.2434 17.5016 13.4434 17.6766C13.9434 18.1349 14.5851 18.385 15.2518 18.385C16.1935 18.385 17.0851 17.885 17.5685 17.0766C17.7101 16.8433 17.8185 16.5767 17.8768 16.3183C17.9351 16.1017 17.9601 15.8933 17.9601 15.6766C17.9601 15.01 17.7101 14.3683 17.2601 13.8683C16.7601 13.285 16.0268 12.96 15.2518 12.96Z" fill="#292D32"/>
<path d="M16.5019 16.2764H14.0103C13.6686 16.2764 13.3853 15.993 13.3853 15.6514C13.3853 15.3097 13.6686 15.0264 14.0103 15.0264H16.5019C16.8436 15.0264 17.1269 15.3097 17.1269 15.6514C17.1269 15.993 16.8436 16.2764 16.5019 16.2764Z" fill="#292D32"/>
<path d="M15.252 17.5512C14.9103 17.5512 14.627 17.2679 14.627 16.9262V14.4346C14.627 14.0929 14.9103 13.8096 15.252 13.8096C15.5936 13.8096 15.877 14.0929 15.877 14.4346V16.9262C15.877 17.2762 15.5936 17.5512 15.252 17.5512Z" fill="#292D32"/>
</svg>
