<svg width="28" height="29" viewBox="0 0 28 29" fill="none" xmlns="http://www.w3.org/2000/svg">
<path d="M14 23.5729C19.1546 23.5729 23.3333 19.3942 23.3333 14.2396C23.3333 9.08493 19.1546 4.90625 14 4.90625C8.84532 4.90625 4.66665 9.08493 4.66665 14.2396C4.66665 15.7326 5.01722 17.1438 5.64054 18.3952C5.80619 18.7278 5.86132 19.1079 5.76529 19.4668L5.20939 21.5445C4.96807 22.4464 5.79319 23.2715 6.6951 23.0302L8.77274 22.4743C9.13165 22.3782 9.51177 22.4334 9.84434 22.599C11.0958 23.2223 12.5069 23.5729 14 23.5729Z" fill="#3CA94E" stroke="#3CA94E" stroke-width="1.5"/>
<path d="M11.2007 14.2458C11.2007 14.7613 10.7828 15.1792 10.2673 15.1792C9.75185 15.1792 9.33398 14.7613 9.33398 14.2458C9.33398 13.7304 9.75185 13.3125 10.2673 13.3125C10.7828 13.3125 11.2007 13.7304 11.2007 14.2458Z" fill="white"/>
<path d="M14.934 14.2458C14.934 14.7613 14.5161 15.1792 14.0007 15.1792C13.4852 15.1792 13.0673 14.7613 13.0673 14.2458C13.0673 13.7304 13.4852 13.3125 14.0007 13.3125C14.5161 13.3125 14.934 13.7304 14.934 14.2458Z" fill="white"/>
<path d="M18.6673 14.2458C18.6673 14.7613 18.2494 15.1792 17.734 15.1792C17.2185 15.1792 16.8007 14.7613 16.8007 14.2458C16.8007 13.7304 17.2185 13.3125 17.734 13.3125C18.2494 13.3125 18.6673 13.7304 18.6673 14.2458Z" fill="white"/>
</svg>
