<svg width="31" height="31" viewBox="0 0 31 31" fill="none" xmlns="http://www.w3.org/2000/svg">
<path d="M5.81836 15.2666C5.81836 10.5526 5.81836 8.19553 7.28283 6.73107C8.74729 5.2666 11.1043 5.2666 15.8184 5.2666C20.5324 5.2666 22.8894 5.2666 24.3539 6.73107C25.8184 8.19553 25.8184 10.5526 25.8184 15.2666C25.8184 19.9806 25.8184 22.3377 24.3539 23.8021C22.8894 25.2666 20.5324 25.2666 15.8184 25.2666C11.1043 25.2666 8.74729 25.2666 7.28283 23.8021C5.81836 22.3377 5.81836 19.9806 5.81836 15.2666Z" stroke="#1C274C" stroke-width="1.5"/>
<circle cx="19.8184" cy="11.2666" r="2" stroke="#1C274C" stroke-width="1.5"/>
<path d="M5.81836 13.4204L6.79909 13.2796C13.7773 12.2776 19.7421 18.2979 18.6755 25.2666" stroke="#1C274C" stroke-width="1.5" stroke-linecap="round"/>
<path d="M25.8184 16.6512L24.845 16.5164C22.0013 16.1227 19.4282 17.5384 18.103 19.7667" stroke="#1C274C" stroke-width="1.5" stroke-linecap="round"/>
</svg>
