<svg width="28" height="29" viewBox="0 0 28 29" fill="none" xmlns="http://www.w3.org/2000/svg">
<path d="M4.6665 12.044C4.6665 16.6637 8.48496 19.1255 11.2801 21.329C12.2665 22.1066 13.2165 22.8387 14.1665 22.8387C15.1165 22.8387 16.0665 22.1066 17.0529 21.329C19.848 19.1255 23.6665 16.6637 23.6665 12.044C23.6665 7.42416 18.4414 4.1479 14.1665 8.58931C9.89166 4.1479 4.6665 7.42416 4.6665 12.044Z" fill="#EB242B"/>
<path d="M11.2801 21.329L11.7445 20.7401L11.2801 21.329ZM14.1665 8.58931L13.6261 9.10941C13.7675 9.25631 13.9626 9.33931 14.1665 9.33931C14.3704 9.33931 14.5655 9.25631 14.7069 9.10941L14.1665 8.58931ZM17.0529 21.329L16.5885 20.7401L17.0529 21.329ZM11.7445 20.7401C10.3024 19.6032 8.73206 18.4978 7.48591 17.0946C6.26548 15.7203 5.4165 14.1198 5.4165 12.044H3.9165C3.9165 14.5879 4.97676 16.5282 6.36435 18.0906C7.72622 19.6241 9.46274 20.8514 10.8158 21.918L11.7445 20.7401ZM5.4165 12.044C5.4165 10.0147 6.56312 8.31484 8.12523 7.6008C9.64007 6.90836 11.6807 7.08813 13.6261 9.10941L14.7069 8.06921C12.3775 5.64908 9.66809 5.24627 7.50164 6.23656C5.38246 7.20525 3.9165 9.45346 3.9165 12.044H5.4165ZM10.8158 21.918C11.3021 22.3014 11.8265 22.7121 12.3586 23.023C12.8904 23.3338 13.5011 23.5887 14.1665 23.5887V22.0887C13.8819 22.0887 13.5426 21.9776 13.1154 21.7279C12.6883 21.4784 12.2445 21.1343 11.7445 20.7401L10.8158 21.918ZM17.5172 21.918C18.8703 20.8514 20.6068 19.6241 21.9687 18.0906C23.3563 16.5282 24.4165 14.5879 24.4165 12.044H22.9165C22.9165 14.1198 22.0675 15.7203 20.8471 17.0946C19.6009 18.4978 18.0306 19.6032 16.5885 20.7401L17.5172 21.918ZM24.4165 12.044C24.4165 9.45346 22.9505 7.20525 20.8314 6.23656C18.6649 5.24627 15.9555 5.64908 13.6261 8.06921L14.7069 9.10941C16.6523 7.08813 18.6929 6.90836 20.2078 7.6008C21.7699 8.31484 22.9165 10.0147 22.9165 12.044H24.4165ZM16.5885 20.7401C16.0885 21.1343 15.6447 21.4784 15.2177 21.7279C14.7904 21.9776 14.4511 22.0887 14.1665 22.0887V23.5887C14.8319 23.5887 15.4426 23.3338 15.9744 23.023C16.5065 22.7121 17.0309 22.3014 17.5172 21.918L16.5885 20.7401Z" fill="#EB242B"/>
</svg>
